<svg xmlns="http://www.w3.org/2000/svg" viewBox="0 0 64 64" role="img" aria-label="SS Favicon">
  <defs>
    <linearGradient id="g" x1="0" y1="0" x2="1" y2="1">
      <stop offset="0%" stop-color="#00D9B4"/>
      <stop offset="100%" stop-color="#7B61FF"/>
    </linearGradient>
  </defs>
  <rect width="64" height="64" rx="14" fill="#0A0A0B"/>
  <rect x="3" y="3" width="58" height="58" rx="11" fill="none" stroke="url(#g)" stroke-width="2"/>
  <path d="M19 23c0-4 3-7 8-7h12v6H27c-1 0-2 1-2 2s1 2 2 2h8c5 0 9 3 9 8s-4 9-9 9H18v-6h17c1 0 2-1 2-2s-1-2-2-2h-8c-5 0-8-3-8-8z" fill="#F2F0EC"/>
</svg>
